# xmcd CD database file
#
# Track frame offsets:
#	150
#	16797
#	40389
#	53855
#	72461
#	102334
#	119997
#	140329
#	159470
#	182447
#
# Disc length: 2666 seconds
#
# Revision: 1
# Processed by: cddbd v1.5.2PL0 Copyright (c) Steve Scherf et al.
# Submitted via: CDex 1.51
#
DISCID=8b0a680a
DTITLE=Lucky Jim - Our Troubles End Tonight
DYEAR=2004
DGENRE=Country
TTITLE0=You Stole My Heart Away [all w GordonGrahame]
TTITLE1=You're Lovely To Me
TTITLE2=Our Troubles End Tonight
TTITLE3=Leah [all i GG+BenTownsend+pro]
TTITLE4=Lesbia
TTITLE5=Almeria
TTITLE6=The Honeymooners
TTITLE7=Westward We're Headed
TTITLE8=My Soul Is On Fire
TTITLE9=Endless Night
EXTD=YEAR: 2004
EXTT0=
EXTT1=
EXTT2=
EXTT3=
EXTT4=
EXTT5=
EXTT6=
EXTT7=
EXTT8=
EXTT9=
PLAYORDER=
